<svg id="Capa_1" enable-background="new 0 0 512 512" height="512" viewBox="0 0 512 512" width="512" xmlns="http://www.w3.org/2000/svg"><g><g><path d="m406.388 256-150.388-62.125-150.388 62.125c-21.038 0-38.093 17.055-38.093 38.093v48.063c0 21.038 17.055 38.093 38.093 38.093l150.388 62.126 150.388-62.125c21.038 0 38.093-17.055 38.093-38.093v-48.063c0-21.039-17.055-38.094-38.093-38.094z" fill="#928cd9"/><path d="m135.612 380.25c-21.038 0-38.093-17.055-38.093-38.094v-48.063c0-21.038 17.055-38.093 38.093-38.093l135.388-55.929-15-6.196-150.388 62.125c-21.038 0-38.093 17.055-38.093 38.093v48.063c0 21.039 17.055 38.094 38.093 38.094l150.388 62.125 15-6.197z" fill="#625ac5"/><path d="m406.388 7.5h-300.776c-21.038 0-38.093 17.055-38.093 38.093v48.063c0 21.038 17.055 38.093 38.093 38.093l158.139 21.059 142.636-21.059c21.038 0 38.093-17.055 38.093-38.093v-48.063c.001-21.038-17.054-38.093-38.092-38.093z" fill="#928cd9"/><path d="m135.612 131.75c-21.038 0-38.093-17.055-38.093-38.094v-48.063c0-21.038 17.055-38.093 38.093-38.093h-30c-21.038 0-38.093 17.055-38.093 38.093v48.063c0 21.039 17.055 38.094 38.093 38.094l158.139 21.059 14.227-2.101z" fill="#625ac5"/><path d="m406.388 380.25h-300.776c-21.038 0-38.093 17.055-38.093 38.093v48.063c0 21.038 17.055 38.093 38.093 38.093h300.775c21.038 0 38.093-17.055 38.093-38.093v-48.063c.001-21.038-17.054-38.093-38.092-38.093z" fill="#625ac5"/><path d="m97.519 466.406v-48.063c0-21.038 17.055-38.093 38.093-38.093h-30c-21.038 0-38.093 17.055-38.093 38.093v48.063c0 21.039 17.055 38.094 38.093 38.094h30c-21.038 0-38.093-17.055-38.093-38.094z" fill="#3f36ab"/><circle cx="143.813" cy="442.375" fill="#ff8de4" r="17.435"/><circle cx="209.007" cy="442.375" fill="#ff8de4" r="17.435"/><path d="m263.751 424.94h121.87v34.869h-121.87z" fill="#50e2e1"/><circle cx="143.813" cy="318.125" fill="#ff8de4" r="17.435"/><circle cx="209.007" cy="318.125" fill="#ff8de4" r="17.435"/><path d="m263.751 300.69h121.87v34.869h-121.87z" fill="#50e2e1"/><path d="m406.388 131.75h-300.776c-21.038 0-38.093 17.055-38.093 38.093v48.063c0 21.038 17.055 38.093 38.093 38.093h300.775c21.038 0 38.093-17.055 38.093-38.093v-48.063c.001-21.038-17.054-38.093-38.092-38.093z" fill="#625ac5"/><path d="m97.519 217.906v-48.063c0-21.038 17.055-38.093 38.093-38.093h-30c-21.038 0-38.093 17.055-38.093 38.093v48.063c0 21.039 17.055 38.094 38.093 38.094h30c-21.038 0-38.093-17.055-38.093-38.094z" fill="#3f36ab"/><circle cx="143.813" cy="193.875" fill="#ff8de4" r="17.435"/><circle cx="209.007" cy="193.875" fill="#ff8de4" r="17.435"/><path d="m263.751 176.44h121.87v34.869h-121.87z" fill="#50e2e1"/><g fill="#ff8de4"><ellipse cx="155.003" cy="77.694" rx="29.677" ry="37.266" transform="matrix(.002 -1 1 .002 76.969 232.527)"/><ellipse cx="356.997" cy="78.136" rx="29.677" ry="37.266" transform="matrix(.002 -1 1 .002 278.08 434.962)"/></g></g><g><path d="m60.019 418.343v48.063c0 25.141 20.453 45.594 45.593 45.594h300.775c25.14 0 45.593-20.453 45.593-45.594v-48.063c0-15.909-8.197-29.933-20.583-38.093 12.386-8.16 20.583-22.184 20.583-38.094v-48.063c0-15.909-8.197-29.933-20.583-38.093 12.386-8.16 20.583-22.184 20.583-38.094v-48.063c0-15.909-8.197-29.933-20.583-38.093 12.386-8.16 20.583-22.184 20.583-38.094v-48.063c.001-25.14-20.452-45.593-45.592-45.593h-300.776c-25.14 0-45.593 20.453-45.593 45.593v48.063c0 15.91 8.197 29.934 20.583 38.094-12.386 8.16-20.583 22.184-20.583 38.093v48.063c0 15.91 8.197 29.934 20.583 38.094-12.386 8.16-20.583 22.184-20.583 38.093v48.063c0 15.91 8.197 29.934 20.583 38.094-12.386 8.16-20.583 22.184-20.583 38.093zm15-200.437v-48.063c0-16.869 13.724-30.593 30.593-30.593h57.907c4.142 0 7.5-3.358 7.5-7.5s-3.358-7.5-7.5-7.5h-57.907c-16.869 0-30.593-13.725-30.593-30.594v-48.063c0-16.869 13.724-30.593 30.593-30.593h300.775c16.869 0 30.593 13.724 30.593 30.593v48.063c0 16.869-13.724 30.594-30.593 30.594h-213.41c-4.142 0-7.5 3.358-7.5 7.5s3.358 7.5 7.5 7.5h213.411c16.869 0 30.593 13.724 30.593 30.593v48.063c0 16.869-13.724 30.594-30.593 30.594h-300.776c-16.869 0-30.593-13.725-30.593-30.594zm0 200.437c0-16.869 13.724-30.593 30.593-30.593h227.953c4.142 0 7.5-3.358 7.5-7.5s-3.358-7.5-7.5-7.5h-227.953c-16.869 0-30.593-13.725-30.593-30.594v-48.063c0-16.869 13.724-30.593 30.593-30.593h300.775c16.869 0 30.593 13.724 30.593 30.593v48.063c0 16.869-13.724 30.594-30.593 30.594h-43.737c-4.142 0-7.5 3.358-7.5 7.5s3.358 7.5 7.5 7.5h43.737c16.869 0 30.593 13.724 30.593 30.593v48.063c0 16.869-13.724 30.594-30.593 30.594h-300.775c-16.869 0-30.593-13.725-30.593-30.594z"/><path d="m143.813 467.31c13.749 0 24.935-11.186 24.935-24.935s-11.186-24.935-24.935-24.935-24.935 11.186-24.935 24.935 11.186 24.935 24.935 24.935zm0-34.87c5.478 0 9.935 4.456 9.935 9.935 0 5.478-4.457 9.935-9.935 9.935s-9.935-4.457-9.935-9.935c.001-5.479 4.457-9.935 9.935-9.935z"/><path d="m209.007 467.31c13.749 0 24.935-11.186 24.935-24.935s-11.186-24.935-24.935-24.935-24.935 11.186-24.935 24.935 11.186 24.935 24.935 24.935zm0-34.87c5.478 0 9.935 4.456 9.935 9.935 0 5.478-4.457 9.935-9.935 9.935s-9.935-4.457-9.935-9.935c0-5.479 4.457-9.935 9.935-9.935z"/><path d="m263.751 467.31h121.87c4.142 0 7.5-3.358 7.5-7.5v-34.87c0-4.143-3.358-7.5-7.5-7.5h-121.87c-4.142 0-7.5 3.357-7.5 7.5v34.869c0 4.142 3.358 7.501 7.5 7.501zm7.5-34.87h106.87v19.869h-106.87z"/><path d="m143.813 293.19c-13.749 0-24.935 11.186-24.935 24.935s11.186 24.935 24.935 24.935 24.935-11.186 24.935-24.935-11.186-24.935-24.935-24.935zm0 34.87c-5.478 0-9.935-4.457-9.935-9.935 0-5.479 4.457-9.935 9.935-9.935s9.935 4.456 9.935 9.935c0 5.478-4.456 9.935-9.935 9.935z"/><path d="m209.007 293.19c-13.749 0-24.935 11.186-24.935 24.935s11.186 24.935 24.935 24.935 24.935-11.186 24.935-24.935-11.186-24.935-24.935-24.935zm0 34.87c-5.478 0-9.935-4.457-9.935-9.935 0-5.479 4.457-9.935 9.935-9.935s9.935 4.456 9.935 9.935c-.001 5.478-4.457 9.935-9.935 9.935z"/><path d="m393.122 335.56v-34.87c0-4.143-3.358-7.5-7.5-7.5h-121.87c-4.142 0-7.5 3.357-7.5 7.5v34.869c0 4.142 3.358 7.5 7.5 7.5h121.87c4.142.001 7.5-3.358 7.5-7.499zm-15-7.5h-106.87v-19.87h106.87z"/><path d="m143.813 168.94c-13.749 0-24.935 11.186-24.935 24.935s11.186 24.935 24.935 24.935 24.935-11.186 24.935-24.935-11.186-24.935-24.935-24.935zm0 34.87c-5.478 0-9.935-4.457-9.935-9.935 0-5.479 4.457-9.935 9.935-9.935s9.935 4.456 9.935 9.935c0 5.478-4.456 9.935-9.935 9.935z"/><path d="m209.007 168.94c-13.749 0-24.935 11.186-24.935 24.935s11.186 24.935 24.935 24.935 24.935-11.186 24.935-24.935-11.186-24.935-24.935-24.935zm0 34.87c-5.478 0-9.935-4.457-9.935-9.935 0-5.479 4.457-9.935 9.935-9.935s9.935 4.456 9.935 9.935c-.001 5.478-4.457 9.935-9.935 9.935z"/><path d="m385.622 168.94h-121.87c-4.142 0-7.5 3.357-7.5 7.5v34.869c0 4.142 3.358 7.5 7.5 7.5h121.87c4.142 0 7.5-3.358 7.5-7.5v-34.869c0-4.142-3.358-7.5-7.5-7.5zm-7.5 34.87h-106.87v-19.87h106.87z"/><path d="m184.58 40.445c0-4.142-3.358-7.5-7.5-7.5s-7.5 3.358-7.5 7.5v15.145c0 4.142 3.358 7.5 7.5 7.5s7.5-3.358 7.5-7.5z"/><path d="m334.703 63.09c4.142 0 7.5-3.358 7.5-7.5v-15.145c0-4.142-3.358-7.5-7.5-7.5s-7.5 3.358-7.5 7.5v15.145c0 4.141 3.358 7.5 7.5 7.5z"/><path d="m237.877 90.362c7.123 0 13.578-2.909 18.244-7.599 4.665 4.69 11.121 7.599 18.243 7.599 14.195 0 25.743-11.548 25.743-25.743 0-4.142-3.358-7.5-7.5-7.5s-7.5 3.358-7.5 7.5c0 5.924-4.819 10.743-10.743 10.743s-10.743-4.819-10.743-10.743c0-4.142-3.358-7.5-7.5-7.5s-7.5 3.358-7.5 7.5c0 5.924-4.819 10.743-10.744 10.743-5.924 0-10.743-4.819-10.743-10.743 0-4.142-3.358-7.5-7.5-7.5s-7.5 3.358-7.5 7.5c0 14.195 11.549 25.743 25.743 25.743z"/></g></g></svg>