<svg height="511pt" viewBox="0 -34 511.998 511" width="511pt" xmlns="http://www.w3.org/2000/svg"><path d="m489.058594 215.847656h-466.117188c-8.527344 0-15.441406-6.914062-15.441406-15.441406v-22.070312c0-8.53125 6.914062-15.441407 15.441406-15.441407h466.117188c8.527344 0 15.441406 6.910157 15.441406 15.441407v22.070312c0 8.527344-6.914062 15.441406-15.441406 15.441406zm0 0" fill="#b28e7d"/><path d="m172.402344 436.363281h-112.359375c-6.09375 0-11.03125-4.941406-11.03125-11.035156v-209.480469h134.425781v209.480469c0 6.09375-4.941406 11.035156-11.035156 11.035156zm0 0" fill="#aad7ef"/><path d="m172.402344 436.363281h-112.359375c-6.09375 0-11.03125-4.941406-11.03125-11.035156v-209.480469h134.425781v209.480469c0 6.09375-4.941406 11.035156-11.035156 11.035156zm0 0" fill="#aad7ef"/><path d="m49.011719 425.328125c0 6.09375 4.9375 11.035156 11.03125 11.035156h76.730469c-37.484376-38.566406-49.003907-143.605469-52.285157-206.101562h98.949219v-14.414063h-134.425781zm0 0" fill="#9ccce6"/><path d="m148.789062 324.136719h-65.128906c-5.007812 0-9.070312 4.0625-9.070312 9.070312v30.550781c0 5.011719 4.0625 9.070313 9.070312 9.070313h65.128906c5.007813 0 9.070313-4.058594 9.070313-9.070313v-30.550781c0-5.007812-4.0625-9.070312-9.070313-9.070312zm0 0" fill="#7e9bde"/><path d="m148.789062 242.3125h-65.128906c-5.007812 0-9.070312 4.058594-9.070312 9.070312v30.550782c0 5.007812 4.0625 9.070312 9.070312 9.070312h65.128906c5.007813 0 9.070313-4.0625 9.070313-9.070312v-30.550782c0-5.011718-4.0625-9.070312-9.070313-9.070312zm0 0" fill="#7e9bde"/><path d="m85.195312 242.3125h-1.535156c-5.007812 0-9.070312 4.058594-9.070312 9.070312v30.550782c0 5.007812 4.0625 9.070312 9.070312 9.070312h5.988282c-2.066407-17.195312-3.488282-33.816406-4.453126-48.691406zm0 0" fill="#5a7ccc"/><path d="m339.597656 436.363281h112.359375c6.09375 0 11.03125-4.941406 11.03125-11.035156v-209.480469h-134.425781v209.480469c0 6.09375 4.941406 11.035156 11.035156 11.035156zm0 0" fill="#aad7ef"/><path d="m363.210938 242.3125h65.128906c5.007812 0 9.070312 4.058594 9.070312 9.070312v30.550782c0 5.007812-4.0625 9.070312-9.070312 9.070312h-65.128906c-5.007813 0-9.070313-4.0625-9.070313-9.070312v-30.550782c0-5.011718 4.0625-9.070312 9.070313-9.070312zm0 0" fill="#7e9bde"/><path d="m183.4375 215.847656h145.125v89.777344h-145.125zm0 0" fill="#7e9bde"/><path d="m92.953125 45.941406c-19.179687 0-34.726563 8.847656-34.726563 25.0625 0 21.132813 11.355469 36.621094 34.726563 36.621094s34.722656-15.488281 34.722656-36.621094c0-16.214844-15.546875-25.0625-34.722656-25.0625zm0 0" fill="#97d1c2"/><path d="m130.648438 119.265625h-75.394532l8.691406 43.628906h58.011719zm0 0" fill="#f08686"/><path d="m134.589844 119.265625h-83.277344c-3.132812 0-5.671875-2.539063-5.671875-5.671875v-11.933594c0-3.132812 2.539063-5.671875 5.671875-5.671875h83.277344c3.132812 0 5.671875 2.539063 5.671875 5.671875v11.933594c0 3.128906-2.539063 5.671875-5.671875 5.671875zm0 0" fill="#f19a87"/><path d="m387.078125 49.320312h-86.25c-8.203125 0-13.761719-8.351562-10.597656-15.921874l5.175781-12.375c3.296875-7.890626 11.011719-13.027344 19.5625-13.027344h57.96875c8.550781 0 16.265625 5.136718 19.566406 13.027344l5.175782 12.375c3.164062 7.570312-2.398438 15.921874-10.601563 15.921874zm0 0" fill="#97d1c2"/><path d="m432.375 135.363281h-56.644531c-7.105469 0-13.175781 5.117188-14.375 12.121094l-2.640625 15.410156h90.675781l-2.640625-15.410156c-1.199219-7.003906-7.269531-12.121094-14.375-12.121094zm0 0" fill="#97d1c2"/><path d="m126.09375 274.15625h-19.738281c-4.140625 0-7.5-3.355469-7.5-7.5 0-4.140625 3.359375-7.5 7.5-7.5h19.738281c4.140625 0 7.5 3.359375 7.5 7.5 0 4.144531-3.359375 7.5-7.5 7.5zm0 0" fill="#f8eed1"/><path d="m148.789062 324.136719h-65.128906c-5.007812 0-9.070312 4.0625-9.070312 9.070312v30.550781c0 5.011719 4.0625 9.070313 9.070312 9.070313h65.128906c5.007813 0 9.070313-4.058594 9.070313-9.070313v-30.550781c0-5.007812-4.0625-9.070312-9.070313-9.070312zm0 0" fill="#7e9bde"/><path d="m94.414062 324.136719h-10.753906c-5.007812 0-9.070312 4.0625-9.070312 9.070312v30.550781c0 5.011719 4.0625 9.070313 9.070312 9.070313h21.578125c-4.425781-15.378906-7.980469-31.953125-10.824219-48.691406zm0 0" fill="#5a7ccc"/><path d="m328.5625 425.328125c0 6.09375 4.941406 11.035156 11.035156 11.035156h76.726563c-37.480469-38.566406-49-143.605469-52.28125-206.101562h98.945312v-14.414063h-134.425781zm0 0" fill="#9ccce6"/><path d="m364.75 242.3125h-1.539062c-5.007813 0-9.070313 4.058594-9.070313 9.070312v30.550782c0 5.007812 4.0625 9.070312 9.070313 9.070312h5.988281c-2.066407-17.195312-3.484375-33.816406-4.449219-48.691406zm0 0" fill="#5a7ccc"/><path d="m373.96875 324.136719h-10.757812c-5.007813 0-9.070313 4.0625-9.070313 9.070312v30.550781c0 5.011719 4.0625 9.070313 9.070313 9.070313h21.578124c-4.425781-15.378906-7.976562-31.953125-10.820312-48.691406zm0 0" fill="#5a7ccc"/><path d="m126.09375 355.984375h-19.738281c-4.140625 0-7.5-3.359375-7.5-7.5 0-4.144531 3.359375-7.5 7.5-7.5h19.738281c4.140625 0 7.5 3.355469 7.5 7.5 0 4.140625-3.359375 7.5-7.5 7.5zm0 0" fill="#f8eed1"/><path d="m363.210938 324.136719h65.128906c5.007812 0 9.070312 4.0625 9.070312 9.070312v30.550781c0 5.011719-4.0625 9.070313-9.070312 9.070313h-65.128906c-5.007813 0-9.070313-4.058594-9.070313-9.070313v-30.550781c0-5.007812 4.0625-9.070312 9.070313-9.070312zm0 0" fill="#7e9bde"/><path d="m405.644531 355.984375h-19.734375c-4.144531 0-7.5-3.359375-7.5-7.5 0-4.144531 3.355469-7.5 7.5-7.5h19.734375c4.140625 0 7.5 3.355469 7.5 7.5 0 4.140625-3.359375 7.5-7.5 7.5zm0 0" fill="#f8eed1"/><path d="m405.644531 274.15625h-19.734375c-4.144531 0-7.5-3.355469-7.5-7.5 0-4.140625 3.355469-7.5 7.5-7.5h19.734375c4.140625 0 7.5 3.359375 7.5 7.5 0 4.144531-3.359375 7.5-7.5 7.5zm0 0" fill="#f8eed1"/><path d="m190.480469 162.894531h-167.539063c-8.527344 0-15.441406 6.914063-15.441406 15.441407v22.070312c0 8.53125 6.914062 15.441406 15.441406 15.441406h185.988282c-26.171876-10.863281-33.472657-40.75-18.449219-52.953125zm0 0" fill="#a16f55"/><path d="m83.660156 298.503906h65.128906c9.136719 0 16.570313-7.433594 16.570313-16.570312v-30.550782c0-9.140624-7.433594-16.570312-16.570313-16.570312h-65.128906c-9.136718 0-16.570312 7.433594-16.570312 16.570312v30.550782c0 9.136718 7.433594 16.570312 16.570312 16.570312zm-1.570312-47.121094c0-.867187.703125-1.570312 1.570312-1.570312h65.125c.867188 0 1.570313.703125 1.570313 1.570312v30.550782c0 .867187-.703125 1.570312-1.570313 1.570312h-65.125c-.867187 0-1.570312-.703125-1.570312-1.570312zm281.121094 47.121094h65.128906c9.136718 0 16.570312-7.433594 16.570312-16.570312v-30.550782c0-9.140624-7.433594-16.570312-16.570312-16.570312h-65.128906c-9.136719 0-16.570313 7.433594-16.570313 16.570312v30.550782c0 9.136718 7.433594 16.570312 16.570313 16.570312zm-1.570313-47.121094c0-.867187.707031-1.570312 1.570313-1.570312h65.128906c.867187 0 1.570312.703125 1.570312 1.570312v30.550782c0 .867187-.703125 1.570312-1.570312 1.570312h-65.128906c-.863282 0-1.570313-.703125-1.570313-1.570312zm-294.550781 112.375c0 9.136719 7.433594 16.570313 16.570312 16.570313h65.125c9.140625 0 16.570313-7.433594 16.570313-16.570313v-30.550781c0-9.136719-7.433594-16.570312-16.570313-16.570312h-65.125c-9.136718 0-16.570312 7.433593-16.570312 16.570312zm15-30.550781c0-.867187.703125-1.570312 1.570312-1.570312h65.125c.867188 0 1.570313.703125 1.570313 1.570312v30.550781c0 .867188-.703125 1.570313-1.570313 1.570313h-65.125c-.867187 0-1.570312-.703125-1.570312-1.570313zm281.121094 47.121094h65.128906c9.136718 0 16.570312-7.433594 16.570312-16.570313v-30.550781c0-9.136719-7.433594-16.570312-16.570312-16.570312h-65.128906c-9.136719 0-16.570313 7.433593-16.570313 16.570312v30.550781c0 9.136719 7.433594 16.570313 16.570313 16.570313zm-1.570313-47.121094c0-.867187.707031-1.570312 1.570313-1.570312h65.128906c.867187 0 1.570312.703125 1.570312 1.570312v30.550781c0 .867188-.703125 1.570313-1.570312 1.570313h-65.128906c-.863282 0-1.570313-.703125-1.570313-1.570313zm146.691406-167.320312c-2.25-3.480469-6.890625-4.476563-10.371093-2.226563-3.480469 2.25-4.476563 6.894532-2.226563 10.371094.828125 1.277344 1.265625 2.765625 1.265625 4.304688v22.070312c0 4.378906-3.5625 7.941406-7.941406 7.941406h-466.117188c-4.378906 0-7.941406-3.5625-7.941406-7.941406v-22.070312c0-4.378907 3.5625-7.941407 7.941406-7.941407h40.976563.019531.023438 57.984374.019532.019531 327.378906.019531.023438 21.578125c4.144531 0 7.5-3.359375 7.5-7.5 0-4.144531-3.355469-7.5-7.5-7.5h-15.265625l-1.574219-9.175781c-1.824219-10.636719-10.980469-18.355469-21.769531-18.355469h-11.75l18.351562-46.238281c1.1875-2.996094.332032-6.414062-2.128906-8.492188l-32.480468-27.46875c2.164062-4.765624 2.285156-10.238281.230468-15.15625l-5.175781-12.375c-4.476563-10.710937-14.871094-17.632812-26.480469-17.632812h-57.96875c-11.609375 0-22.007812 6.921875-26.484375 17.632812l-5.175781 12.375c-2.457031 5.875-1.816406 12.546876 1.710938 17.847657 3.53125 5.300781 9.441406 8.464843 15.808593 8.464843h86.246094c2.097656 0 4.144531-.347656 6.074219-1l29.894531 25.28125-18.558594 46.761719h-28.753906c-10.792969 0-19.945313 7.722657-21.769531 18.355469l-1.574219 9.175781h-221.292969l5.746094-28.835937c6.191406-1.074219 10.917969-6.472656 10.917969-12.964844v-11.933594c0-7.261718-5.910157-13.171875-13.171875-13.171875h-2.113282c1.777344-5.273437 2.699219-11.152343 2.699219-17.484375 0-1.492187-.109375-2.941406-.304687-4.355468l3.769531-2.910157c3.28125-2.527343 3.886719-7.238281 1.355469-10.519531-2.53125-3.277344-7.242188-3.882812-10.519532-1.355469l-.757812.585938c-5.988281-7.34375-15.839844-12.207031-28.269531-13.589844v-1.578125c0-4.140625-3.355469-7.5-7.5-7.5-4.140625 0-7.5 3.359375-7.5 7.5v1.578125c-12.425781 1.382813-22.277344 6.246094-28.265625 13.589844l-.757813-.585938c-3.277343-2.527343-7.988281-1.921875-10.519531 1.355469-2.53125 3.28125-1.925781 7.988281 1.355469 10.519531l3.769531 2.910157c-.195312 1.414062-.304688 2.863281-.304688 4.355468 0 6.332032.921876 12.214844 2.699219 17.484375h-2.113281c-7.261719 0-13.171875 5.910157-13.171875 13.171875v11.933594c0 6.492188 4.726563 11.890625 10.917969 12.964844l5.746094 28.835937h-31.863282c-12.652344 0-22.941406 10.289063-22.941406 22.941407v22.070312c0 12.652344 10.289062 22.941406 22.941406 22.941406h18.570313v158.273438c0 4.144531 3.355469 7.5 7.5 7.5 4.140625 0 7.5-3.355469 7.5-7.5v-158.273438h119.425781v201.980469c0 1.949219-1.585938 3.53125-3.535156 3.53125h-112.359375c-1.949219 0-3.53125-1.582031-3.53125-3.53125v-8.792969c0-4.144531-3.359375-7.5-7.5-7.5-4.144531 0-7.5 3.355469-7.5 7.5v8.792969c0 10.21875 8.3125 18.53125 18.53125 18.53125h112.359375c10.21875 0 18.535156-8.3125 18.535156-18.53125v-112.203125h130.125v112.203125c0 10.21875 8.316406 18.53125 18.53125 18.53125h112.359375c10.222656 0 18.535156-8.3125 18.535156-18.53125v-201.980469h18.570313c12.648437 0 22.9375-10.289062 22.9375-22.941406v-22.070312c.003906-4.433594-1.265625-8.738282-3.664063-12.449219zm-117.933593-125.847657c-.355469.535157-1.390626 1.78125-3.320313 1.78125h-86.25c-1.925781 0-2.960937-1.246093-3.316406-1.78125-.355469-.53125-1.105469-1.96875-.359375-3.746093l5.175781-12.375c2.136719-5.113281 7.101563-8.421875 12.644531-8.421875h57.96875c5.542969 0 10.503906 3.308594 12.644532 8.421875l5.175781 12.375c.742187 1.777343-.007813 3.214843-.363281 3.746093zm-21.652344 108.710938c.585937-3.410156 3.523437-5.886719 6.984375-5.886719h33.804687.042969.027344 22.769531c3.464844 0 6.398438 2.476563 6.984375 5.886719l1.136719 6.644531h-72.886719zm-252.941406 6.644531h-45.703126l-5.707031-28.628906h57.113281zm-48.824219-78.410156c2.242187 0 4.464843-1 5.941406-2.917969 2.53125-3.277344 1.925781-7.988281-1.355469-10.519531l-2.457031-1.894531c3.660156-4.269532 9.84375-6.65625 16.34375-7.648438v.601563c0 4.140625 3.355469 7.5 7.5 7.5 4.140625 0 7.5-3.359375 7.5-7.5v-.65625c8.019531 1.144531 13.222656 4.128906 16.261719 7.765625l-2.378906 1.832031c-3.277344 2.53125-3.886719 7.242187-1.355469 10.519531 1.480469 1.917969 3.699219 2.917969 5.945312 2.917969.292969 0 .585938-.035156.878907-.070313-.570313 4.421876-1.828126 8.316407-3.6875 11.574219h-46.332032c-1.859375-3.257812-3.113281-7.152343-3.6875-11.574219.292969.035157.585938.070313.882813.070313zm-13.839844 34.78125v-8.277344h79.621094v8.277344h-2.132813c-.015625 0-.03125 0-.046875 0h-75.25c-.023437 0-.046875 0-.070312 0zm267.921875 186.359375h-130.125v-74.777344h130.125zm134.425781 127.203125c0 1.949219-1.585937 3.53125-3.53125 3.53125h-112.359375c-1.949218 0-3.535156-1.582031-3.535156-3.53125v-201.980469h119.425781zm0 0"/></svg>